<svg xmlns="http://www.w3.org/2000/svg" viewBox="0 0 64 64" fill="none" stroke="currentColor" stroke-width="1.5" stroke-linecap="round" stroke-linejoin="round">
  <!-- Graduation cap top (mortarboard) -->
  <polygon points="32,10 56,20 32,30 8,20"/>
  <!-- Cap hanging tassel side line -->
  <line x1="32" y1="10" x2="32" y2="6"/>
  <circle cx="32" cy="5" r="1.5"/>
  <!-- Cap band -->
  <line x1="44" y1="24" x2="44" y2="34"/>
  <path d="M44 34 Q44 39 40 40 Q36 41 36 38"/>
  <!-- Diploma scroll -->
  <rect x="12" y="38" width="24" height="18" rx="2"/>
  <path d="M12 42 Q8 42 8 47 Q8 52 12 52"/>
  <path d="M36 42 Q40 42 40 47 Q40 52 36 52"/>
  <!-- Scroll lines (text) -->
  <line x1="17" y1="45" x2="31" y2="45"/>
  <line x1="17" y1="49" x2="31" y2="49"/>
  <!-- Ribbon on scroll -->
  <line x1="24" y1="38" x2="24" y2="56"/>
  <!-- Pen -->
  <line x1="44" y1="38" x2="56" y2="52"/>
  <path d="M56 52 L52 58 L50 54 Z"/>
  <line x1="44" y1="38" x2="46" y2="36"/>
  <path d="M46 36 L49 33 L52 36 L49 39 Z"/>
</svg>
