<svg xmlns="http://www.w3.org/2000/svg" viewBox="0 0 64 64" fill="none" stroke="currentColor" stroke-width="1.5" stroke-linecap="round" stroke-linejoin="round">
  <!-- Ayurvedic herb / tulsi branch -->
  <!-- Main stem -->
  <path d="M32 58 L32 28"/>
  <!-- Left branch -->
  <path d="M32 44 L22 36"/>
  <!-- Right branch -->
  <path d="M32 38 L42 30"/>
  <!-- Left leaf -->
  <path d="M22 36 C18 32 17 27 20 25 C23 23 26 26 22 36Z"/>
  <!-- Right leaf -->
  <path d="M42 30 C46 26 47 21 44 19 C41 17 38 20 42 30Z"/>
  <!-- Center top leaf -->
  <path d="M32 28 C30 23 28 19 30 16 C32 13 34 16 32 28Z"/>
  <!-- Healing pulse line / EKG below -->
  <path d="M8 50 L18 50 L22 44 L26 56 L30 48 L34 50 L38 50 L42 45 L46 54 L50 50 L56 50" stroke-width="1.3"/>
</svg>
