<svg xmlns="http://www.w3.org/2000/svg" viewBox="0 0 64 64" fill="none" stroke="currentColor" stroke-width="1.5" stroke-linecap="round" stroke-linejoin="round">
  <!-- Protective circle -->
  <circle cx="32" cy="32" r="26"/>
  <!-- Rahu serpent (entering from left, spiraling clockwise) -->
  <path d="M8 32 Q10 18 22 14 Q36 10 44 18 Q52 26 48 36 Q44 46 36 46 Q28 46 28 38 Q28 30 36 30 Q42 30 42 36"/>
  <!-- Rahu head -->
  <circle cx="42" cy="36" r="2.5"/>
  <!-- Rahu hood flare -->
  <path d="M40 34 Q38 31 41 30 Q44 29 45 32 Q46 35 44 37"/>
  <!-- Ketu serpent (exiting right, tail with flame) -->
  <path d="M56 32 Q54 22 44 18"/>
  <!-- Ketu tail (flamed/comet) -->
  <path d="M56 32 Q60 36 58 42 Q56 46 52 44"/>
  <path d="M58 42 Q62 46 60 50"/>
  <path d="M58 42 Q56 50 54 48"/>
  <!-- Center yantra dot -->
  <circle cx="32" cy="32" r="2"/>
  <!-- Inner protective marks (small triangles) -->
  <path d="M32 20 L34 24 L30 24 Z" stroke-width="1"/>
  <path d="M32 44 L34 40 L30 40 Z" stroke-width="1"/>
</svg>
