<svg xmlns="http://www.w3.org/2000/svg" viewBox="0 0 64 64" fill="none" stroke="currentColor" stroke-width="1.5" stroke-linecap="round" stroke-linejoin="round">
  <!-- Open book - left page -->
  <path d="M32 48 L12 44 L12 20 C12 20 18 21 32 24 Z"/>
  <!-- Open book - right page -->
  <path d="M32 48 L52 44 L52 20 C52 20 46 21 32 24 Z"/>
  <!-- Book spine/binding at center bottom -->
  <path d="M32 48 L32 24"/>
  <!-- Text lines on left page -->
  <path d="M17 29 L28 31" stroke-width="1"/>
  <path d="M17 33 L28 35" stroke-width="1"/>
  <path d="M17 37 L28 39" stroke-width="1"/>
  <!-- Text lines on right page -->
  <path d="M36 31 L47 29" stroke-width="1"/>
  <path d="M36 35 L47 33" stroke-width="1"/>
  <path d="M36 39 L47 37" stroke-width="1"/>
  <!-- Jyoti (flame of wisdom) above book -->
  <path d="M32 22 C31 18 29 15 30 11 C31 8 32 7 32 7 C32 7 33 8 34 11 C35 15 33 18 32 22Z"/>
  <!-- Inner flame -->
  <path d="M32 20 C31.5 17 30.5 15 31 12 C31.5 10 32 9 32 9 C32 9 32.5 10 33 12 C33.5 15 32.5 17 32 20Z" stroke-width="1"/>
  <!-- Flame glow rays -->
  <path d="M32 9 L32 6" stroke-width="1"/>
  <path d="M28 11 L26 9" stroke-width="1"/>
  <path d="M36 11 L38 9" stroke-width="1"/>
</svg>
