<svg xmlns="http://www.w3.org/2000/svg" viewBox="0 0 64 64" fill="none" stroke="currentColor" stroke-width="1.5" stroke-linecap="round" stroke-linejoin="round">
  <!-- Tree trunk -->
  <line x1="32" y1="52" x2="32" y2="30"/>
  <!-- Roots spreading deep -->
  <path d="M32 52 Q26 54 20 58"/>
  <path d="M32 52 Q38 54 44 58"/>
  <path d="M32 54 Q29 58 26 62"/>
  <path d="M32 54 Q35 58 38 62"/>
  <path d="M32 52 Q32 58 32 62"/>
  <!-- Tree branches -->
  <path d="M32 30 Q24 24 16 18"/>
  <path d="M32 30 Q40 24 48 18"/>
  <path d="M32 36 Q22 30 14 26"/>
  <path d="M32 36 Q42 30 50 26"/>
  <path d="M32 26 Q32 18 32 12"/>
  <!-- Canopy / foliage circles -->
  <circle cx="32" cy="10" r="6"/>
  <circle cx="22" cy="14" r="5"/>
  <circle cx="42" cy="14" r="5"/>
  <circle cx="16" cy="20" r="4"/>
  <circle cx="48" cy="20" r="4"/>
  <!-- Infinity symbol overlaid (longevity) -->
  <path d="M24 44 Q24 40 28 40 Q32 40 32 44 Q32 48 36 48 Q40 48 40 44 Q40 40 36 40 Q32 40 32 44 Q32 48 28 48 Q24 48 24 44 Z"/>
</svg>
