<svg xmlns="http://www.w3.org/2000/svg" viewBox="0 0 64 64" fill="none" stroke="currentColor" stroke-width="1.5" stroke-linecap="round" stroke-linejoin="round">
  <!-- Head silhouette outline -->
  <path d="M20 52 L20 42 Q14 36 14 26 Q14 12 32 12 Q50 12 50 26 Q50 36 44 42 L44 52"/>
  <!-- Neck/shoulders line -->
  <line x1="18" y1="52" x2="46" y2="52"/>
  <!-- Calm lotus inside head -->
  <!-- Lotus center -->
  <circle cx="32" cy="30" r="3"/>
  <!-- Lotus petals -->
  <path d="M32 27 Q29 24 29 20 Q32 22 32 27"/>
  <path d="M32 27 Q35 24 35 20 Q32 22 32 27"/>
  <path d="M35 30 Q38 27 42 27 Q40 30 35 30"/>
  <path d="M35 33 Q38 36 38 40 Q35 38 35 33"/>
  <path d="M29 33 Q26 36 26 40 Q29 38 29 33"/>
  <path d="M29 30 Q26 27 22 27 Q24 30 29 30"/>
  <!-- Calm brain waves (below lotus) -->
  <path d="M22 38 Q24 35 26 38 Q28 41 30 38 Q32 35 34 38 Q36 41 38 38 Q40 35 42 38" stroke-width="1"/>
  <!-- Small Om symbol hint at top of head -->
  <path d="M28 18 Q26 16 28 14 Q31 13 32 15 Q33 17 31 18 Q33 18 34 20 Q32 22 30 20" stroke-width="1.2"/>
  <line x1="28" y1="20" x2="36" y2="20" stroke-width="1"/>
  <path d="M33 20 Q35 22 33 24" stroke-width="1"/>
</svg>
