<svg xmlns="http://www.w3.org/2000/svg" viewBox="0 0 64 64" fill="none" stroke="currentColor" stroke-width="1.5" stroke-linecap="round" stroke-linejoin="round">
  <!-- Shield outline -->
  <path d="M32 6 L54 14 L54 34 C54 46 44 56 32 59 C20 56 10 46 10 34 L10 14 Z"/>
  <!-- Inner shield line -->
  <path d="M32 11 L49 18 L49 34 C49 43 42 51 32 54 C22 51 15 43 15 34 L15 18 Z" stroke-width="1"/>
  <!-- Om symbol inside shield -->
  <!-- Om: the curved body -->
  <path d="M26 30 C26 27 28 25 30 25 C33 25 35 27 35 30 C35 33 33 34 31 34" stroke-width="1.5"/>
  <!-- Om: lower curve -->
  <path d="M26 34 C26 37 28 39 31 39 C34 39 36 37 36 34" stroke-width="1.5"/>
  <!-- Om: the visor/curve at top right -->
  <path d="M35 27 C37 25 39 26 39 29 C39 32 37 33 35 33" stroke-width="1.5"/>
  <!-- Om: the dot and curve above (mathra) -->
  <path d="M33 21 C35 19 38 19 38 22" stroke-width="1.2"/>
  <circle cx="32" cy="20" r="0.8" fill="currentColor" stroke="none"/>
</svg>
