<svg xmlns="http://www.w3.org/2000/svg" viewBox="0 0 64 64" fill="none" stroke="currentColor" stroke-width="1.5" stroke-linecap="round" stroke-linejoin="round">
  <!-- Large boulder/rock being split -->
  <!-- Left half of split rock -->
  <path d="M32 18 L14 28 L12 48 L30 52 L32 44 Z"/>
  <!-- Right half of split rock -->
  <path d="M32 18 L50 28 L52 48 L34 52 L32 44 Z"/>
  <!-- Split crack / gap between halves -->
  <path d="M32 18 L32 52" stroke-width="2.5"/>
  <!-- Rock texture on left half -->
  <path d="M18 34 L26 36" stroke-width="1"/>
  <path d="M16 42 L24 44" stroke-width="1"/>
  <!-- Rock texture on right half -->
  <path d="M38 36 L46 34" stroke-width="1"/>
  <path d="M40 44 L48 42" stroke-width="1"/>
  <!-- Energy burst / breaking force at split top -->
  <path d="M32 14 L32 8" stroke-width="1.5"/>
  <path d="M27 16 L23 11" stroke-width="1.2"/>
  <path d="M37 16 L41 11" stroke-width="1.2"/>
  <path d="M24 20 L19 17" stroke-width="1"/>
  <path d="M40 20 L45 17" stroke-width="1"/>
  <!-- Star burst at crack tip -->
  <circle cx="32" cy="15" r="2.5" stroke-width="1.2"/>
  <!-- Debris flying outward -->
  <path d="M18 26 L13 22" stroke-width="1"/>
  <path d="M46 26 L51 22" stroke-width="1"/>
  <path d="M15 38 L10 35" stroke-width="1"/>
  <path d="M49 38 L54 35" stroke-width="1"/>
</svg>
