<svg xmlns="http://www.w3.org/2000/svg" viewBox="0 0 64 64" fill="none" stroke="currentColor" stroke-width="1.5" stroke-linecap="round" stroke-linejoin="round">
  <!-- Trophy cup body -->
  <path d="M20 10 L44 10 L41 30 Q40 38 32 40 Q24 38 23 30 Z"/>
  <!-- Trophy handles -->
  <path d="M20 13 Q12 13 12 21 Q12 28 20 27"/>
  <path d="M44 13 Q52 13 52 21 Q52 28 44 27"/>
  <!-- Trophy stem -->
  <line x1="32" y1="40" x2="32" y2="48"/>
  <!-- Trophy base -->
  <line x1="24" y1="48" x2="40" y2="48"/>
  <line x1="22" y1="52" x2="42" y2="52"/>
  <!-- Star/victory mark on trophy -->
  <path d="M32 16 L33.5 20.5 L38 20.5 L34.5 23 L36 27.5 L32 25 L28 27.5 L29.5 23 L26 20.5 L30.5 20.5 Z"/>
  <!-- Victory flag on top -->
  <line x1="32" y1="10" x2="32" y2="4"/>
  <path d="M32 4 L40 6.5 L32 9 Z"/>
</svg>
