<svg xmlns="http://www.w3.org/2000/svg" viewBox="0 0 64 64" fill="none" stroke="currentColor" stroke-width="1.5" stroke-linecap="round" stroke-linejoin="round">
  <!-- Open Vedic book / shastra -->
  <path d="M8 18 Q8 16 10 16 L30 18 L30 50 L10 48 Q8 48 8 46 Z" />
  <path d="M56 18 Q56 16 54 16 L34 18 L34 50 L54 48 Q56 48 56 46 Z" />
  <!-- Book spine -->
  <line x1="30" y1="18" x2="34" y2="18" />
  <line x1="30" y1="50" x2="34" y2="50" />
  <path d="M30 18 Q32 17 34 18" />
  <path d="M30 50 Q32 51 34 50" />
  <!-- Text lines on left page -->
  <line x1="13" y1="25" x2="27" y2="24" />
  <line x1="13" y1="29" x2="27" y2="28" />
  <line x1="13" y1="33" x2="27" y2="32" />
  <line x1="13" y1="37" x2="27" y2="36" />
  <line x1="13" y1="41" x2="27" y2="40" />
  <!-- Text lines on right page -->
  <line x1="37" y1="25" x2="51" y2="24" />
  <line x1="37" y1="29" x2="51" y2="28" />
  <line x1="37" y1="33" x2="51" y2="32" />
  <line x1="37" y1="37" x2="51" y2="36" />
  <line x1="37" y1="41" x2="51" y2="40" />
  <!-- Akhand Jyoti / divine lamp above book -->
  <!-- Lamp base -->
  <path d="M26 14 Q32 12 38 14 Q36 16 32 16 Q28 16 26 14Z" />
  <!-- Lamp oil vessel -->
  <path d="M28 16 Q27 18 28 20 Q32 22 36 20 Q37 18 36 16" />
  <!-- Flame -->
  <path d="M30 14 Q29 11 31 9 Q32 11 33 9 Q35 11 34 14" />
  <!-- Flame glow rays -->
  <line x1="32" y1="8" x2="32" y2="5" />
  <line x1="27" y1="9" x2="25" y2="7" />
  <line x1="37" y1="9" x2="39" y2="7" />
  <line x1="25" y1="12" x2="22" y2="11" />
  <line x1="39" y1="12" x2="42" y2="11" />
  <!-- Om symbol hint on book spine -->
  <path d="M31 30 Q30 28 31 27 Q33 27 33 29 Q33 31 31 31 Q30 33 32 34 Q33 34 33 33" />
  <line x1="30" y1="34" x2="33" y2="34" />
  <path d="M30 32 Q29 33 30 34" />
</svg>
