<svg xmlns="http://www.w3.org/2000/svg" viewBox="0 0 64 64" fill="none" stroke="currentColor" stroke-width="1.5" stroke-linecap="round" stroke-linejoin="round">
  <!-- Ganesha head outline -->
  <path d="M22 28 Q18 20 22 14 Q27 8 32 8 Q37 8 42 14 Q46 20 42 28 Q40 36 32 38 Q24 36 22 28Z" />
  <!-- Elephant trunk curling to right -->
  <path d="M28 30 Q24 34 26 40 Q28 46 32 46 Q35 45 34 42 Q33 40 30 42" />
  <!-- Trunk tip curl with modaka hint -->
  <circle cx="30" cy="43" r="2.5" />
  <!-- Large elephant ears -->
  <path d="M22 20 Q12 18 12 26 Q12 34 20 32" />
  <path d="M42 20 Q52 18 52 26 Q52 34 44 32" />
  <!-- Eyes -->
  <circle cx="27" cy="20" r="2" />
  <circle cx="37" cy="20" r="2" />
  <!-- Third eye dot -->
  <circle cx="32" cy="17" r="1" />
  <!-- Crown / mukuta top -->
  <path d="M26 10 Q32 4 38 10" />
  <line x1="32" y1="4" x2="32" y2="8" />
  <line x1="27" y1="5.5" x2="26" y2="9" />
  <line x1="37" y1="5.5" x2="38" y2="9" />
  <!-- Quill / pen (Ganesha's broken tusk used as pen - Budh/Mercury wisdom) -->
  <path d="M38 52 L44 44 Q46 42 45 40 Q43 39 41 41 L35 50 Z" />
  <line x1="38" y1="52" x2="35" y2="50" />
  <path d="M41 41 L43 43" />
  <!-- Small lotus petals at base -->
  <path d="M26 54 Q28 50 32 50 Q36 50 38 54" />
  <path d="M24 56 Q28 52 32 52 Q36 52 40 56" />
  <path d="M23 55 Q22 58 26 58 L38 58 Q42 58 41 55" />
</svg>
