<svg xmlns="http://www.w3.org/2000/svg" viewBox="0 0 64 64" fill="none" stroke="currentColor" stroke-width="1.5" stroke-linecap="round" stroke-linejoin="round">
  <!-- Ganga ghat steps -->
  <path d="M4 56 L4 50 L10 50 L10 44 L18 44 L18 38 L24 38 L24 44 L32 44 L32 38 L38 38 L38 44 L46 44 L46 50 L54 50 L54 56 Z"/>
  <!-- Water ripples below steps -->
  <path d="M4 58 Q12 56 20 58 Q28 60 36 58 Q44 56 52 58 Q58 59 60 58"/>
  <path d="M8 60 Q16 58 24 60 Q32 62 40 60 Q48 58 56 60"/>
  <!-- Diyas on ghat steps -->
  <!-- Diya 1 -->
  <path d="M7 50 Q8 48 10 50"/>
  <line x1="8.5" y1="48" x2="8.5" y2="46"/>
  <path d="M8.5 46 Q9 44 8.5 43"/>
  <!-- Diya 2 -->
  <path d="M14 44 Q15 42 17 44"/>
  <line x1="15.5" y1="42" x2="15.5" y2="40"/>
  <path d="M15.5 40 Q16 38 15.5 37"/>
  <!-- Diya 3 -->
  <path d="M21 38 Q22 36 24 38"/>
  <line x1="22.5" y1="36" x2="22.5" y2="34"/>
  <path d="M22.5 34 Q23 32 22.5 31"/>
  <!-- Diya 4 center -->
  <path d="M30 38 Q31 36 33 38"/>
  <line x1="31.5" y1="36" x2="31.5" y2="33"/>
  <path d="M31.5 33 Q32 30 31.5 28"/>
  <!-- Diya 5 -->
  <path d="M39 38 Q40 36 42 38"/>
  <line x1="40.5" y1="36" x2="40.5" y2="34"/>
  <path d="M40.5 34 Q41 32 40.5 31"/>
  <!-- Diya 6 -->
  <path d="M47 44 Q48 42 50 44"/>
  <line x1="48.5" y1="42" x2="48.5" y2="40"/>
  <path d="M48.5 40 Q49 38 48.5 37"/>
  <!-- Diya 7 right -->
  <path d="M53 50 Q54 48 56 50"/>
  <line x1="54.5" y1="48" x2="54.5" y2="46"/>
  <path d="M54.5 46 Q55 44 54.5 43"/>
  <!-- Stars in sky -->
  <line x1="12" y1="14" x2="12" y2="18"/> <line x1="10" y1="16" x2="14" y2="16"/>
  <line x1="24" y1="8" x2="24" y2="12"/> <line x1="22" y1="10" x2="26" y2="10"/>
  <line x1="40" y1="10" x2="40" y2="14"/> <line x1="38" y1="12" x2="42" y2="12"/>
  <line x1="52" y1="14" x2="52" y2="18"/> <line x1="50" y1="16" x2="54" y2="16"/>
  <!-- Reflection dots in water -->
  <circle cx="8" cy="59" r="0.8"/>
  <circle cx="22" cy="59" r="0.8"/>
  <circle cx="32" cy="59" r="0.8"/>
  <circle cx="44" cy="59" r="0.8"/>
  <circle cx="54" cy="59" r="0.8"/>
</svg>
