<svg xmlns="http://www.w3.org/2000/svg" viewBox="0 0 64 64" fill="none" stroke="currentColor" stroke-width="1.5" stroke-linecap="round" stroke-linejoin="round">
  <!-- Diya lamp -->
  <path d="M22 46 Q20 42 22 40 Q26 36 32 36 Q38 36 42 40 Q44 42 42 46 Z"/>
  <!-- Diya spout/wick holder -->
  <path d="M40 40 Q44 38 46 40"/>
  <!-- Flame -->
  <path d="M43 40 Q41 36 43 32 Q45 36 43 40"/>
  <path d="M43 36 Q44 33 43 30"/>
  <!-- Lakshmi footprints - pair 1 -->
  <ellipse cx="14" cy="30" rx="3" ry="4.5" transform="rotate(-10 14 30)"/>
  <line x1="12" y1="26.5" x2="13" y2="25"/>
  <line x1="13.5" y1="26" x2="14.5" y2="24.5"/>
  <line x1="15" y1="26" x2="16" y2="24.5"/>
  <!-- Footprints pair 2 -->
  <ellipse cx="20" cy="20" rx="3" ry="4.5" transform="rotate(10 20 20)"/>
  <line x1="18" y1="16.5" x2="19" y2="15"/>
  <line x1="19.5" y1="16" x2="20.5" y2="14.5"/>
  <line x1="21" y1="16" x2="22" y2="14.5"/>
  <!-- Gold coins scattered -->
  <circle cx="30" cy="22" r="3.5"/>
  <line x1="30" y1="19" x2="30" y2="25"/>
  <line x1="26.5" y1="22" x2="33.5" y2="22"/>
  <circle cx="42" cy="18" r="3"/>
  <line x1="42" y1="15.5" x2="42" y2="20.5"/>
  <line x1="39.5" y1="18" x2="44.5" y2="18"/>
  <circle cx="50" cy="28" r="3"/>
  <line x1="50" y1="25.5" x2="50" y2="30.5"/>
  <line x1="47.5" y1="28" x2="52.5" y2="28"/>
  <circle cx="36" cy="12" r="2.5"/>
  <!-- Small coins -->
  <circle cx="10" cy="42" r="2"/>
  <circle cx="52" cy="42" r="2"/>
  <!-- Lotus petals (Lakshmi symbol) -->
  <path d="M28 46 Q30 42 32 46 Q34 42 36 46"/>
  <!-- Ground -->
  <line x1="8" y1="52" x2="56" y2="52"/>
</svg>
