<svg xmlns="http://www.w3.org/2000/svg" viewBox="0 0 64 64" fill="none" stroke="currentColor" stroke-width="1.5" stroke-linecap="round" stroke-linejoin="round">
  <!-- Diya base (oil lamp bowl) -->
  <path d="M20 40 Q18 46 22 48 Q32 51 42 48 Q46 46 44 40 Z"/>
  <!-- Diya spout -->
  <path d="M42 42 Q48 40 50 38"/>
  <!-- Wick in spout area -->
  <line x1="49" y1="38" x2="51" y2="36"/>
  <!-- Flame -->
  <path d="M51 36 C49 32 47 29 50 25 C52 28 54 31 51 36Z"/>
  <!-- Inner flame -->
  <path d="M51 35 C50 32 50 30 51 27 C52 30 52 32 51 35Z"/>
  <!-- Oil in diya -->
  <path d="M24 43 Q32 45 40 43"/>
  <!-- Rangoli dots pattern around diya -->
  <!-- Top arc -->
  <circle cx="32" cy="28" r="1" fill="currentColor" stroke="none"/>
  <circle cx="24" cy="30" r="1" fill="currentColor" stroke="none"/>
  <circle cx="40" cy="30" r="1" fill="currentColor" stroke="none"/>
  <!-- Left side -->
  <circle cx="14" cy="36" r="1" fill="currentColor" stroke="none"/>
  <circle cx="11" cy="44" r="1" fill="currentColor" stroke="none"/>
  <!-- Right side -->
  <circle cx="53" cy="44" r="1" fill="currentColor" stroke="none"/>
  <!-- Bottom arc -->
  <circle cx="18" cy="54" r="1" fill="currentColor" stroke="none"/>
  <circle cx="26" cy="57" r="1" fill="currentColor" stroke="none"/>
  <circle cx="32" cy="58" r="1" fill="currentColor" stroke="none"/>
  <circle cx="38" cy="57" r="1" fill="currentColor" stroke="none"/>
  <circle cx="46" cy="54" r="1" fill="currentColor" stroke="none"/>
  <!-- Rangoli curved lines -->
  <path d="M14 36 Q11 44 18 54"/>
  <path d="M24 30 Q14 36 18 54"/>
  <path d="M40 30 Q53 36 46 54"/>
  <path d="M24 30 Q28 27 32 28 Q36 27 40 30"/>
  <path d="M18 54 Q26 59 32 58 Q38 59 46 54"/>
</svg>
