<svg xmlns="http://www.w3.org/2000/svg" viewBox="0 0 64 64" fill="none" stroke="currentColor" stroke-width="1.5" stroke-linecap="round" stroke-linejoin="round">
  <!-- Bow -->
  <path d="M10 12 Q6 32 10 52"/>
  <line x1="10" y1="12" x2="10" y2="52"/>
  <!-- Bowstring -->
  <line x1="10" y1="12" x2="10" y2="52"/>
  <!-- Arrow -->
  <line x1="10" y1="32" x2="48" y2="20"/>
  <!-- Arrowhead -->
  <path d="M48 20 L44 17 L46 23 Z"/>
  <!-- Arrow fletch -->
  <path d="M10 32 L7 28 L12 30"/>
  <!-- Ravana effigy outline - simplified 3 heads (central + sides) -->
  <!-- Central head -->
  <circle cx="42" cy="34" r="5"/>
  <!-- Left head -->
  <circle cx="34" cy="30" r="3.5"/>
  <!-- Right head -->
  <circle cx="50" cy="30" r="3.5"/>
  <!-- Crown on central head -->
  <path d="M38 30 L39 26 L42 28 L45 26 L46 30"/>
  <!-- Body -->
  <path d="M38 39 L36 52 M46 39 L48 52 M36 52 L48 52"/>
  <!-- Arms -->
  <path d="M38 42 L30 46 M46 42 L54 46"/>
  <!-- Flames at base -->
  <path d="M32 52 Q34 46 36 52 Q38 46 40 52 Q42 46 44 52 Q46 46 48 52"/>
  <path d="M30 55 Q35 48 38 55 Q42 48 46 55 Q50 48 52 55"/>
</svg>
