<svg xmlns="http://www.w3.org/2000/svg" viewBox="0 0 64 64" fill="none" stroke="currentColor" stroke-width="1.5" stroke-linecap="round" stroke-linejoin="round">
  <!-- Offering plate (thali) -->
  <ellipse cx="32" cy="54" rx="20" ry="4"/>
  <!-- Plate rim -->
  <path d="M12 54 L13 50 L51 50 L52 54"/>
  <!-- Three modaks on plate -->
  <!-- Center modak -->
  <path d="M32 50 Q28 44 29 40 Q30 36 32 35 Q34 36 35 40 Q36 44 32 50Z"/>
  <!-- Modak ridges -->
  <path d="M32 35 Q31 38 31 41"/>
  <path d="M32 35 Q33 38 33 41"/>
  <path d="M29 41 Q30 44 32 47"/>
  <path d="M35 41 Q34 44 32 47"/>
  <!-- Left modak -->
  <path d="M20 50 Q17 45 18 42 Q19 39 21 38 Q23 39 23 42 Q23 46 20 50Z"/>
  <path d="M21 38 Q20 41 20 43"/>
  <path d="M21 38 Q22 41 22 43"/>
  <!-- Right modak -->
  <path d="M44 50 Q41 45 42 42 Q43 39 45 38 Q47 39 47 42 Q47 46 44 50Z"/>
  <path d="M45 38 Q44 41 44 43"/>
  <path d="M45 38 Q46 41 46 43"/>
  <!-- Ganesha crown (mukut) top portion -->
  <path d="M22 28 Q20 22 24 18 Q28 15 32 14 Q36 15 40 18 Q44 22 42 28"/>
  <!-- Crown details -->
  <path d="M24 18 L23 12 L26 16"/>
  <path d="M32 14 L32 8 L34 13"/>
  <path d="M40 18 L41 12 L38 16"/>
  <!-- Crown base band -->
  <path d="M22 28 Q32 32 42 28"/>
  <!-- Tusk outline (one broken, one full) -->
  <path d="M24 32 Q20 36 22 40 Q24 41 25 39"/>
  <path d="M40 32 Q44 34 43 38"/>
  <!-- Broken tusk -->
  <path d="M43 38 L42 40"/>
  <!-- Trunk curl -->
  <path d="M28 34 Q30 38 32 36 Q34 34 36 36 Q36 39 34 40"/>
  <!-- Eyes suggested -->
  <circle cx="27" cy="30" r="1.5"/>
  <circle cx="37" cy="30" r="1.5"/>
</svg>
