<svg xmlns="http://www.w3.org/2000/svg" viewBox="0 0 64 64" fill="none" stroke="currentColor" stroke-width="1.5" stroke-linecap="round" stroke-linejoin="round">
  <!-- Open book (Bhagavad Gita) -->
  <path d="M32 48 L8 44 L8 18 Q8 16 12 16 L32 20 Z"/>
  <path d="M32 48 L56 44 L56 18 Q56 16 52 16 L32 20 Z"/>
  <!-- Book spine -->
  <line x1="32" y1="20" x2="32" y2="48"/>
  <!-- Book cover decoration (left page) -->
  <path d="M12 22 Q20 20 28 22"/>
  <path d="M12 26 Q20 24 28 26"/>
  <path d="M12 30 Q20 28 28 30"/>
  <!-- Book cover decoration (right page) -->
  <path d="M36 22 Q44 20 52 22"/>
  <path d="M36 26 Q44 24 52 26"/>
  <path d="M36 30 Q44 28 52 30"/>
  <!-- Chakra (Sudarshana) above book -->
  <circle cx="32" cy="10" r="7"/>
  <circle cx="32" cy="10" r="4"/>
  <!-- Chakra spokes (16 spokes) -->
  <line x1="32" y1="3" x2="32" y2="6"/>
  <line x1="32" y1="14" x2="32" y2="17"/>
  <line x1="25" y1="10" x2="28" y2="10"/>
  <line x1="36" y1="10" x2="39" y2="10"/>
  <line x1="27" y1="5" x2="28.7" y2="6.7"/>
  <line x1="35.3" y1="13.3" x2="37" y2="15"/>
  <line x1="37" y1="5" x2="35.3" y2="6.7"/>
  <line x1="28.7" y1="13.3" x2="27" y2="15"/>
  <line x1="25" y1="7.5" x2="27" y2="9"/>
  <line x1="37" y1="11" x2="39" y2="12.5"/>
  <line x1="25" y1="12.5" x2="27" y2="11"/>
  <line x1="37" y1="9" x2="39" y2="7.5"/>
  <!-- Chariot below the book (battlefield) -->
  <path d="M10 56 Q12 52 16 52 L48 52 Q52 52 54 56"/>
  <!-- Chariot wheel -->
  <circle cx="18" cy="54" r="4"/>
  <line x1="18" y1="50" x2="18" y2="58"/>
  <line x1="14" y1="54" x2="22" y2="54"/>
  <line x1="15.2" y1="51.2" x2="20.8" y2="56.8"/>
  <line x1="20.8" y1="51.2" x2="15.2" y2="56.8"/>
  <circle cx="46" cy="54" r="4"/>
  <line x1="46" y1="50" x2="46" y2="58"/>
  <line x1="42" y1="54" x2="50" y2="54"/>
  <line x1="43.2" y1="51.2" x2="48.8" y2="56.8"/>
  <line x1="48.8" y1="51.2" x2="43.2" y2="56.8"/>
  <!-- Om symbol on right page -->
  <path d="M44 34 Q42 32 44 30 Q46 28 48 30 Q50 32 48 34 Q44 36 44 38"/>
  <path d="M44 38 Q48 38 50 36"/>
  <path d="M46 34 L46 32"/>
</svg>
