<svg xmlns="http://www.w3.org/2000/svg" viewBox="0 0 64 64" fill="none" stroke="currentColor" stroke-width="1.5" stroke-linecap="round" stroke-linejoin="round">
  <!-- Full moon -->
  <circle cx="32" cy="16" r="12"/>
  <!-- Moon detail glow rings -->
  <circle cx="32" cy="16" r="9" stroke-dasharray="1,3"/>
  <!-- Moon surface detail -->
  <path d="M26 12 Q29 10 32 12"/>
  <path d="M34 14 Q37 13 38 16"/>
  <!-- Guru seated in meditation below -->
  <!-- Head -->
  <circle cx="32" cy="40" r="5"/>
  <!-- Guru turban/topknot -->
  <path d="M28 38 Q30 34 32 33 Q34 34 36 38"/>
  <!-- Body in padmasana (lotus pose) -->
  <path d="M24 52 Q26 44 32 44 Q38 44 40 52"/>
  <!-- Crossed legs -->
  <path d="M24 52 Q28 54 32 53 Q36 54 40 52"/>
  <path d="M26 50 Q32 52 38 50"/>
  <!-- Hands in dhyana mudra (lap) -->
  <path d="M28 48 Q32 50 36 48"/>
  <!-- Guru's beard -->
  <path d="M29 43 Q30 46 32 46 Q34 46 35 43"/>
  <!-- Prayer beads (mala) around neck -->
  <path d="M28 42 Q26 44 27 46"/>
  <circle cx="27" cy="47" r="1"/>
  <!-- Ground/mat line -->
  <path d="M20 54 Q32 56 44 54"/>
  <!-- Moonbeams reaching down to guru -->
  <line x1="32" y1="28" x2="32" y2="34" stroke-dasharray="2,2"/>
  <line x1="26" y1="27" x2="25" y2="33" stroke-dasharray="1,3"/>
  <line x1="38" y1="27" x2="39" y2="33" stroke-dasharray="1,3"/>
  <!-- Paduka (sandals) suggestion at bottom -->
  <path d="M24 58 Q26 56 30 57 L30 59 Q26 60 24 58Z"/>
  <path d="M34 58 Q36 56 40 57 L40 59 Q36 60 34 58Z"/>
  <!-- Strap -->
  <path d="M27 57 L27 58"/>
  <path d="M37 57 L37 58"/>
</svg>
