<svg xmlns="http://www.w3.org/2000/svg" viewBox="0 0 64 64" fill="none" stroke="currentColor" stroke-width="1.5" stroke-linecap="round" stroke-linejoin="round">
  <!-- Pichkari (water gun/syringe) body -->
  <rect x="8" y="28" width="30" height="8" rx="3"/>
  <!-- Pichkari nozzle -->
  <path d="M38 30 L46 28 L48 32 L38 34"/>
  <!-- Pichkari handle/plunger -->
  <line x1="8" y1="32" x2="4" y2="32"/>
  <circle cx="4" cy="32" r="2"/>
  <!-- Pichkari trigger/grip -->
  <path d="M18 36 L18 42 L22 42 L22 36"/>
  <!-- Water/color spray from nozzle - dynamic splashes -->
  <path d="M48 30 Q54 26 58 22"/>
  <path d="M48 30 Q55 30 60 28"/>
  <path d="M48 32 Q54 34 58 38"/>
  <!-- Gulal/color splash circles -->
  <!-- Top left color splash -->
  <circle cx="12" cy="14" r="5"/>
  <path d="M12 9 Q8 7 7 10"/>
  <path d="M17 14 Q19 10 17 8"/>
  <path d="M12 19 Q8 20 9 17"/>
  <!-- Top right color splash -->
  <circle cx="52" cy="12" r="4"/>
  <path d="M52 8 Q55 6 56 9"/>
  <path d="M56 12 Q58 15 55 16"/>
  <path d="M48 12 Q46 9 48 8"/>
  <!-- Bottom color splash -->
  <circle cx="44" cy="50" r="6"/>
  <path d="M44 44 Q47 42 49 44"/>
  <path d="M50 50 Q52 53 49 54"/>
  <path d="M44 56 Q41 58 40 55"/>
  <path d="M38 50 Q36 47 39 46"/>
  <!-- Small color dots scattered -->
  <circle cx="24" cy="10" r="2"/>
  <circle cx="32" cy="8" r="1.5"/>
  <circle cx="6" cy="46" r="2.5"/>
  <circle cx="14" cy="52" r="2"/>
  <circle cx="58" cy="46" r="2"/>
  <!-- Color powder mound at bottom -->
  <path d="M10 56 Q20 52 30 54 Q40 52 52 56"/>
  <path d="M14 58 Q22 54 32 56 Q42 54 50 58"/>
</svg>
