<svg xmlns="http://www.w3.org/2000/svg" viewBox="0 0 64 64" fill="none" stroke="currentColor" stroke-width="1.5" stroke-linecap="round" stroke-linejoin="round">
  <!-- Rope from above -->
  <path d="M28 4 Q30 8 28 12 Q30 16 28 20 Q30 24 32 26"/>
  <path d="M36 4 Q34 8 36 12 Q34 16 36 20 Q34 24 32 26"/>
  <!-- Rope ends tying to pot -->
  <path d="M32 26 L28 30"/>
  <path d="M32 26 L36 30"/>
  <!-- Matki (clay pot) -->
  <path d="M22 38 Q20 32 24 30 L40 30 Q44 32 42 38"/>
  <ellipse cx="32" cy="38" rx="10" ry="3"/>
  <!-- Pot belly -->
  <path d="M22 38 Q20 44 24 48 Q28 51 32 51 Q36 51 40 48 Q44 44 42 38"/>
  <!-- Pot decorative band -->
  <path d="M23 40 Q32 43 41 40"/>
  <!-- Butter/dahi spilling -->
  <path d="M28 30 Q26 28 27 26 Q29 25 30 27"/>
  <path d="M36 30 Q38 28 37 26 Q35 25 34 27"/>
  <!-- Bansuri (flute) beside pot -->
  <path d="M44 26 Q56 28 58 42"/>
  <!-- Flute holes -->
  <circle cx="49" cy="29" r="1" fill="currentColor" stroke="none"/>
  <circle cx="51" cy="31" r="1" fill="currentColor" stroke="none"/>
  <circle cx="53" cy="33" r="1" fill="currentColor" stroke="none"/>
  <circle cx="55" cy="36" r="1" fill="currentColor" stroke="none"/>
  <!-- Flute decorative end -->
  <path d="M44 26 Q43 24 45 24 Q46 25 44 26"/>
  <!-- Peacock feather hint -->
  <path d="M6 20 Q10 14 14 18 Q12 22 8 22 Q6 20 6 20Z"/>
  <path d="M6 20 Q8 26 10 24"/>
  <!-- Flute player suggestion (Krishna) - simple outline -->
  <circle cx="10" cy="50" r="4"/>
  <path d="M10 54 L10 60"/>
  <path d="M7 56 L13 56"/>
</svg>
