<svg xmlns="http://www.w3.org/2000/svg" viewBox="0 0 64 64" fill="none" stroke="currentColor" stroke-width="1.5" stroke-linecap="round" stroke-linejoin="round">
  <!-- Shivalinga base (peetham/yoni) -->
  <ellipse cx="32" cy="52" rx="16" ry="5"/>
  <path d="M16 52 L18 46 L46 46 L48 52"/>
  <!-- Shivalinga body -->
  <rect x="24" y="30" width="16" height="16" rx="8" ry="4"/>
  <!-- Rounded top of linga -->
  <path d="M24 34 Q24 26 32 24 Q40 26 40 34"/>
  <!-- Water pot (abhishek kalash) above -->
  <path d="M27 22 Q25 18 26 14 Q28 10 32 9 Q36 10 38 14 Q39 18 37 22"/>
  <!-- Kalash mouth -->
  <path d="M25 22 Q32 24 39 22"/>
  <!-- Kalash neck -->
  <path d="M27 22 L27 20 M37 22 L37 20"/>
  <path d="M27 20 Q32 18 37 20"/>
  <!-- Water dripping from kalash -->
  <path d="M32 9 Q31 6 32 4" stroke-dasharray="1,2"/>
  <circle cx="32" cy="3" r="1"/>
  <!-- Water drop hitting linga -->
  <path d="M32 8 L32 24" stroke-dasharray="2,3"/>
  <!-- Bilva leaves on top of linga -->
  <path d="M28 27 Q26 23 29 22 Q32 23 32 27"/>
  <path d="M32 27 Q32 23 35 22 Q38 23 36 27"/>
  <path d="M30 27 Q30 24 32 23 Q34 24 34 27"/>
  <!-- Stem of bilva -->
  <path d="M32 27 L32 29"/>
  <!-- Second bilva leaf set -->
  <path d="M25 30 Q23 27 25 26 Q27 26 28 29"/>
  <path d="M39 30 Q41 27 39 26 Q37 26 36 29"/>
</svg>
