<svg xmlns="http://www.w3.org/2000/svg" viewBox="0 0 64 64" fill="none" stroke="currentColor" stroke-width="1.5" stroke-linecap="round" stroke-linejoin="round">
  <!-- Cobra body coiled -->
  <path d="M32 52 Q18 52 16 44 Q14 36 20 30 Q26 24 32 26 Q38 28 40 34 Q42 40 36 44 Q30 48 26 44 Q22 40 24 36 Q26 32 30 32 Q34 32 36 36 Q38 40 34 42"/>
  <!-- Cobra neck rise -->
  <path d="M34 42 Q36 38 38 34 Q40 28 36 22 Q34 18 32 16"/>
  <!-- Hood spread -->
  <path d="M32 16 Q22 14 18 20 Q16 26 20 28 Q24 24 32 22 Q40 24 44 28 Q48 26 46 20 Q42 14 32 16Z"/>
  <!-- Hood pattern (spectacle marks) -->
  <path d="M26 20 Q28 18 30 20 Q28 22 26 20Z"/>
  <path d="M34 20 Q36 18 38 20 Q36 22 34 20Z"/>
  <path d="M30 20 Q32 22 34 20"/>
  <!-- Hood ribs -->
  <path d="M22 22 Q24 20 26 22"/>
  <path d="M38 22 Q40 20 42 22"/>
  <!-- Cobra head -->
  <path d="M30 14 Q28 10 32 8 Q36 10 34 14"/>
  <path d="M30 14 Q32 16 34 14"/>
  <!-- Eyes -->
  <circle cx="29" cy="11" r="1.5"/>
  <circle cx="35" cy="11" r="1.5"/>
  <!-- Eye pupils -->
  <circle cx="29" cy="11" r="0.7" fill="currentColor" stroke="none"/>
  <circle cx="35" cy="11" r="0.7" fill="currentColor" stroke="none"/>
  <!-- Forked tongue -->
  <path d="M31 14 L31 17 M31 17 L29 19 M31 17 L33 19"/>
  <!-- Milk bowl below -->
  <path d="M18 58 Q14 56 14 54 Q14 52 18 52 L46 52 Q50 52 50 54 Q50 56 46 58Z"/>
  <!-- Milk surface -->
  <path d="M16 54 Q32 56 48 54"/>
  <!-- Bowl base -->
  <path d="M22 58 Q32 60 42 58"/>
  <!-- Milk ripples -->
  <path d="M24 54 Q28 55 32 54 Q36 55 40 54" stroke-width="1"/>
</svg>
