<svg xmlns="http://www.w3.org/2000/svg" viewBox="0 0 64 64" fill="none" stroke="currentColor" stroke-width="1.5" stroke-linecap="round" stroke-linejoin="round">
  <!-- Full moon circle -->
  <circle cx="32" cy="30" r="16"/>
  <!-- Inner detail ring -->
  <circle cx="32" cy="30" r="12"/>
  <!-- Moon surface texture / mare details -->
  <circle cx="27" cy="26" r="3"/>
  <circle cx="36" cy="32" r="2"/>
  <circle cx="30" cy="34" r="1.5"/>
  <!-- Primary rays (8 directions) -->
  <line x1="32" y1="10" x2="32" y2="6"/>
  <line x1="32" y1="50" x2="32" y2="54"/>
  <line x1="12" y1="30" x2="8" y2="30"/>
  <line x1="52" y1="30" x2="56" y2="30"/>
  <line x1="18.7" y1="16.7" x2="15.9" y2="13.9"/>
  <line x1="45.3" y1="43.3" x2="48.1" y2="46.1"/>
  <line x1="45.3" y1="16.7" x2="48.1" y2="13.9"/>
  <line x1="18.7" y1="43.3" x2="15.9" y2="46.1"/>
  <!-- Secondary shorter rays -->
  <line x1="32" y1="12" x2="32" y2="9"/>
  <line x1="40" y1="13.7" x2="41.8" y2="11.3"/>
  <line x1="46.3" y1="20" x2="48.7" y2="18.2"/>
  <line x1="48" y1="30" x2="51" y2="30"/>
  <line x1="46.3" y1="40" x2="48.7" y2="41.8"/>
  <line x1="40" y1="46.3" x2="41.8" y2="48.7"/>
  <line x1="32" y1="48" x2="32" y2="51"/>
  <line x1="24" y1="46.3" x2="22.2" y2="48.7"/>
  <line x1="17.7" y1="40" x2="15.3" y2="41.8"/>
  <line x1="16" y1="30" x2="13" y2="30"/>
  <line x1="17.7" y1="20" x2="15.3" y2="18.2"/>
  <line x1="24" y1="13.7" x2="22.2" y2="11.3"/>
  <!-- Stars in sky -->
  <path d="M10 10 L10.8 12.5 L13.5 12.5 L11.3 14.2 L12 17 L10 15.4 L8 17 L8.7 14.2 L6.5 12.5 L9.2 12.5 Z"/>
  <path d="M54 8 L54.6 9.8 L56.5 9.8 L55 10.9 L55.5 12.8 L54 11.8 L52.5 12.8 L53 10.9 L51.5 9.8 L53.4 9.8 Z"/>
  <circle cx="8" cy="50" r="1"/>
  <circle cx="56" cy="48" r="1"/>
  <circle cx="50" cy="8" r="1"/>
</svg>
