<svg xmlns="http://www.w3.org/2000/svg" viewBox="0 0 64 64" fill="none" stroke="currentColor" stroke-width="1.5" stroke-linecap="round" stroke-linejoin="round">
  <!-- Wrist band / rakhi base -->
  <path d="M10 34 Q10 28 14 26 Q18 24 20 28"/>
  <path d="M44 28 Q46 24 50 26 Q54 28 54 34"/>
  <!-- Rakhi thread across wrist -->
  <path d="M20 28 Q22 26 32 26 Q42 26 44 28"/>
  <path d="M10 34 Q10 38 14 40 Q18 42 20 38"/>
  <path d="M44 38 Q46 42 50 40 Q54 38 54 34"/>
  <path d="M20 38 Q22 40 32 40 Q42 40 44 38"/>
  <!-- Central medallion/flower -->
  <circle cx="32" cy="32" r="8"/>
  <!-- Decorative petals on medallion -->
  <path d="M32 24 Q30 28 32 32 Q34 28 32 24"/>
  <path d="M32 40 Q30 36 32 32 Q34 36 32 40"/>
  <path d="M24 32 Q28 30 32 32 Q28 34 24 32"/>
  <path d="M40 32 Q36 30 32 32 Q36 34 40 32"/>
  <path d="M26.3 26.3 Q28.8 29.8 32 32 Q29.8 28.8 26.3 26.3"/>
  <path d="M37.7 37.7 Q35.2 34.2 32 32 Q34.2 35.2 37.7 37.7"/>
  <path d="M37.7 26.3 Q35.2 29.8 32 32 Q34.2 28.8 37.7 26.3"/>
  <path d="M26.3 37.7 Q28.8 34.2 32 32 Q29.8 35.2 26.3 37.7"/>
  <!-- Inner center circle -->
  <circle cx="32" cy="32" r="3"/>
  <!-- Center dot -->
  <circle cx="32" cy="32" r="1"/>
  <!-- Knot tails hanging down -->
  <path d="M32 40 Q28 44 26 50 Q24 54 22 56"/>
  <path d="M32 40 Q36 44 38 50 Q40 54 42 56"/>
  <!-- Knot loops -->
  <path d="M26 50 Q22 52 24 56 Q28 58 30 54 Q28 50 26 50"/>
  <path d="M38 50 Q42 52 40 56 Q36 58 34 54 Q36 50 38 50"/>
  <!-- Decorative beads on thread -->
  <circle cx="20" cy="32" r="1.5"/>
  <circle cx="14" cy="32" r="1.5"/>
  <circle cx="44" cy="32" r="1.5"/>
  <circle cx="50" cy="32" r="1.5"/>
  <!-- Small decorative flowers at sides -->
  <circle cx="12" cy="26" r="2"/>
  <line x1="10" y1="26" x2="8" y2="26"/>
  <line x1="12" y1="24" x2="12" y2="22"/>
  <line x1="14" y1="26" x2="16" y2="26"/>
  <line x1="12" y1="28" x2="12" y2="30"/>
  <circle cx="52" cy="26" r="2"/>
  <line x1="50" y1="26" x2="48" y2="26"/>
  <line x1="52" y1="24" x2="52" y2="22"/>
  <line x1="54" y1="26" x2="56" y2="26"/>
  <line x1="52" y1="28" x2="52" y2="30"/>
</svg>
