<svg xmlns="http://www.w3.org/2000/svg" viewBox="0 0 64 64" fill="none" stroke="currentColor" stroke-width="1.5" stroke-linecap="round" stroke-linejoin="round">
  <!-- Divine Crown (Mukut) at top -->
  <path d="M24 20 Q22 14 26 10 Q30 7 32 6 Q34 7 38 10 Q42 14 40 20"/>
  <!-- Crown base -->
  <path d="M22 22 Q32 25 42 22"/>
  <!-- Crown spires -->
  <line x1="26" y1="10" x2="24" y2="4"/>
  <line x1="32" y1="6" x2="32" y2="2"/>
  <line x1="38" y1="10" x2="40" y2="4"/>
  <!-- Crown jewels -->
  <circle cx="32" cy="14" r="2"/>
  <circle cx="27" cy="17" r="1.5"/>
  <circle cx="37" cy="17" r="1.5"/>
  <!-- Crown decorative band -->
  <path d="M24 20 Q28 18 32 19 Q36 18 40 20"/>
  <!-- Bow (Dhanush) -->
  <path d="M14 54 Q10 40 16 28 Q22 20 26 24"/>
  <!-- Bow curve -->
  <path d="M14 54 Q18 52 22 48 Q26 42 26 36 Q26 30 26 24"/>
  <!-- Bow string -->
  <line x1="14" y1="54" x2="26" y2="24"/>
  <!-- Arrow on bow -->
  <path d="M8 40 L44 28"/>
  <!-- Arrow tip -->
  <path d="M44 28 L40 26 L42 30 Z"/>
  <!-- Arrow fletching -->
  <path d="M8 40 L6 37 L10 38"/>
  <path d="M8 40 L5 42 L9 42"/>
  <!-- Arrow shaft detail -->
  <line x1="20" y1="36" x2="22" y2="35"/>
  <line x1="26" y1="33" x2="28" y2="32"/>
  <!-- Lotus below crown -->
  <path d="M26 28 Q28 24 32 24 Q36 24 38 28"/>
  <path d="M28 28 Q28 26 32 25 Q36 26 36 28"/>
</svg>
