<svg xmlns="http://www.w3.org/2000/svg" viewBox="0 0 64 64" fill="none" stroke="currentColor" stroke-width="1.5" stroke-linecap="round" stroke-linejoin="round">
  <!-- Sun at top -->
  <circle cx="32" cy="10" r="6"/>
  <!-- Sun rays -->
  <line x1="32" y1="2" x2="32" y2="0"/>
  <line x1="40" y1="4" x2="42" y2="2"/>
  <line x1="44" y1="10" x2="46" y2="10"/>
  <line x1="20" y1="4" x2="18" y2="2"/>
  <line x1="16" y1="10" x2="14" y2="10"/>
  <!-- Chariot body -->
  <rect x="14" y="32" width="36" height="18" rx="1"/>
  <!-- Chariot top / canopy -->
  <path d="M14 32 L18 24 L46 24 L50 32"/>
  <path d="M18 24 L32 18 L46 24"/>
  <!-- Chariot wheel left (dharma chakra style) -->
  <circle cx="22" cy="50" r="8"/>
  <circle cx="22" cy="50" r="4"/>
  <!-- Wheel spokes -->
  <line x1="22" y1="42" x2="22" y2="58"/>
  <line x1="14" y1="50" x2="30" y2="50"/>
  <line x1="16.3" y1="44.3" x2="27.7" y2="55.7"/>
  <line x1="27.7" y1="44.3" x2="16.3" y2="55.7"/>
  <!-- Chariot wheel right -->
  <circle cx="42" cy="50" r="8"/>
  <circle cx="42" cy="50" r="4"/>
  <line x1="42" y1="42" x2="42" y2="58"/>
  <line x1="34" y1="50" x2="50" y2="50"/>
  <line x1="36.3" y1="44.3" x2="47.7" y2="55.7"/>
  <line x1="47.7" y1="44.3" x2="36.3" y2="55.7"/>
  <!-- Horses (simplified, 2 visible) -->
  <!-- Horse 1 -->
  <path d="M10 36 Q6 32 4 28 Q2 24 6 22 Q10 20 12 24 L14 32"/>
  <line x1="4" y1="40" x2="4" y2="46"/>
  <line x1="8" y1="40" x2="8" y2="46"/>
  <!-- Reins -->
  <line x1="14" y1="32" x2="8" y2="26"/>
  <!-- Ground -->
  <line x1="2" y1="58" x2="62" y2="58"/>
</svg>
