<svg xmlns="http://www.w3.org/2000/svg" viewBox="0 0 64 64" fill="none" stroke="currentColor" stroke-width="1.5" stroke-linecap="round" stroke-linejoin="round">
  <!-- Veena body (resonator gourd - large lower) -->
  <ellipse cx="44" cy="48" rx="10" ry="8"/>
  <!-- Veena upper resonator (smaller) -->
  <ellipse cx="16" cy="22" rx="6" ry="5"/>
  <!-- Veena neck (dandi) connecting the two -->
  <path d="M22 22 Q34 28 38 40"/>
  <!-- Veena top peg box (yali head suggested) -->
  <path d="M10 18 Q12 14 16 14 Q20 14 22 18"/>
  <path d="M12 16 Q16 12 20 16"/>
  <!-- Tuning pegs -->
  <line x1="12" y1="18" x2="9" y2="16"/>
  <line x1="14" y1="16" x2="12" y2="13"/>
  <line x1="18" y1="16" x2="20" y2="13"/>
  <line x1="20" y1="18" x2="23" y2="16"/>
  <!-- Veena strings (4 main) -->
  <path d="M16 24 Q30 32 40 46"/>
  <path d="M17 25 Q31 33 41 47"/>
  <path d="M18 26 Q32 34 42 48"/>
  <path d="M19 27 Q33 35 43 49"/>
  <!-- Books/Pustaka stack -->
  <rect x="4" y="48" width="18" height="4" rx="1"/>
  <rect x="5" y="44" width="16" height="4" rx="1"/>
  <rect x="6" y="40" width="14" height="4" rx="1"/>
  <!-- Book page lines -->
  <line x1="7" y1="42" x2="18" y2="42"/>
  <line x1="6" y1="46" x2="20" y2="46"/>
  <!-- Ink pot -->
  <path d="M50 38 Q48 36 48 34 Q48 30 52 30 Q56 30 56 34 Q56 36 54 38"/>
  <ellipse cx="52" cy="38" rx="3" ry="1.5"/>
  <!-- Ink pot neck -->
  <path d="M50 38 L50 40 L54 40 L54 38"/>
  <!-- Ink inside -->
  <ellipse cx="52" cy="34" rx="2" ry="1"/>
  <!-- Quill/pen -->
  <path d="M54 28 Q58 20 60 14 Q56 18 54 24"/>
  <path d="M54 28 Q52 22 50 16 Q52 20 54 24"/>
  <line x1="54" y1="24" x2="54" y2="40"/>
  <!-- Lotus suggestion for Saraswati -->
  <path d="M30 58 Q28 54 32 52 Q36 54 34 58"/>
  <path d="M32 52 Q30 50 32 48 Q34 50 32 52"/>
</svg>
