<svg xmlns="http://www.w3.org/2000/svg" viewBox="0 0 64 64" fill="none" stroke="currentColor" stroke-width="1.5" stroke-linecap="round" stroke-linejoin="round">
  <!-- Wedding canopy / mandap top -->
  <path d="M10 20 L32 12 L54 20"/>
  <line x1="10" y1="20" x2="10" y2="48"/>
  <line x1="54" y1="20" x2="54" y2="48"/>
  <!-- Hanging toran/garlands -->
  <path d="M10 20 Q16 26 22 22 Q28 26 32 22 Q36 26 42 22 Q48 26 54 20"/>
  <!-- Decorated pot with Tulsi plant -->
  <!-- Pot -->
  <path d="M24 48 Q22 44 22 40 Q22 36 32 36 Q42 36 42 40 Q42 44 40 48 Z"/>
  <path d="M26 36 Q26 33 32 33 Q38 33 38 36"/>
  <ellipse cx="32" cy="33" rx="6" ry="2"/>
  <!-- Tulsi stems -->
  <line x1="32" y1="33" x2="28" y2="18"/>
  <line x1="32" y1="33" x2="32" y2="14"/>
  <line x1="32" y1="33" x2="36" y2="18"/>
  <!-- Tulsi leaves -->
  <ellipse cx="27" cy="16" rx="3" ry="2" transform="rotate(-30 27 16)"/>
  <ellipse cx="32" cy="12" rx="3" ry="2"/>
  <ellipse cx="37" cy="16" rx="3" ry="2" transform="rotate(30 37 16)"/>
  <ellipse cx="25" cy="22" rx="2.5" ry="1.5" transform="rotate(-20 25 22)"/>
  <ellipse cx="39" cy="22" rx="2.5" ry="1.5" transform="rotate(20 39 22)"/>
  <!-- Shaligram stone beside pot -->
  <ellipse cx="47" cy="42" rx="4" ry="3"/>
  <!-- Om/sacred mark on shaligram -->
  <path d="M45 42 Q46 40 48 42 Q47 44 45 42"/>
  <!-- Decorative pattern on pot -->
  <path d="M24 42 Q32 44 40 42"/>
  <!-- Ground -->
  <line x1="8" y1="52" x2="56" y2="52"/>
  <!-- Flower decorations on mandap poles -->
  <circle cx="10" cy="30" r="2"/>
  <circle cx="54" cy="30" r="2"/>
</svg>
