<svg xmlns="http://www.w3.org/2000/svg" viewBox="0 0 64 64" fill="none" stroke="currentColor" stroke-width="1.5" stroke-linecap="round" stroke-linejoin="round">
  <!-- Marriage mandap canopy -->
  <path d="M8 22 L32 10 L56 22"/>
  <!-- Mandap pillars -->
  <line x1="8" y1="22" x2="8" y2="54"/>
  <line x1="56" y1="22" x2="56" y2="54"/>
  <line x1="20" y1="26" x2="20" y2="54"/>
  <line x1="44" y1="26" x2="44" y2="54"/>
  <!-- Decorative canopy scallops -->
  <path d="M8 22 Q12 28 16 24 Q20 28 24 24 Q28 28 32 24 Q36 28 40 24 Q44 28 48 24 Q52 28 56 22"/>
  <!-- Hanging garlands -->
  <path d="M8 24 Q14 30 20 26"/>
  <path d="M44 26 Q50 30 56 24"/>
  <path d="M20 26 Q26 32 32 28 Q38 32 44 26"/>
  <!-- Sacred fire / havan kund -->
  <path d="M26 50 Q24 46 24 44 Q24 42 32 42 Q40 42 40 44 Q40 46 38 50 Z"/>
  <!-- Flames -->
  <path d="M29 42 Q28 38 30 34 Q32 38 31 42"/>
  <path d="M32 42 Q31 37 33 33 Q35 38 34 42"/>
  <path d="M35 42 Q34 38 36 35 Q37 38 36 42"/>
  <!-- Kush grass / flower petals offerings -->
  <path d="M26 44 Q28 40 32 42"/>
  <path d="M38 44 Q36 40 32 42"/>
  <!-- Garlands on sides -->
  <path d="M20 36 Q24 34 28 36"/>
  <path d="M36 36 Q40 34 44 36"/>
  <!-- Ground -->
  <line x1="4" y1="56" x2="60" y2="56"/>
  <!-- Stars/auspicious marks -->
  <path d="M32 14 L33.5 17 L37 17 L34.2 19.2 L35.4 22.5 L32 20.5 L28.6 22.5 L29.8 19.2 L27 17 L30.5 17 Z"/>
</svg>
