<svg xmlns="http://www.w3.org/2000/svg" viewBox="0 0 64 64" fill="none" stroke="currentColor" stroke-width="1.5" stroke-linecap="round" stroke-linejoin="round">
  <!-- Trishul (trident) - dominant vertical element -->
  <!-- Trishul shaft -->
  <line x1="32" y1="12" x2="32" y2="56"/>

  <!-- Trishul center prong (tall) -->
  <path d="M32 12 L30 18 L32 16 L34 18 Z"/>

  <!-- Trishul left prong -->
  <path d="M32 18 L28 14 Q26 12 25 14 Q25 18 27 20 L32 20"/>

  <!-- Trishul right prong -->
  <path d="M32 18 L36 14 Q38 12 39 14 Q39 18 37 20 L32 20"/>

  <!-- Cross guard on shaft -->
  <line x1="28" y1="22" x2="36" y2="22"/>
  <path d="M27 21 L27 23"/>
  <path d="M37 21 L37 23"/>

  <!-- Sword crossing the trishul diagonally -->
  <!-- Sword blade -->
  <path d="M10 10 L44 52"/>
  <!-- Sword tip -->
  <path d="M44 52 L47 55 L45 53"/>
  <!-- Sword crossguard (hilt) -->
  <path d="M17 17 Q16 14 13 14 Q11 15 12 17"/>
  <path d="M21 21 Q24 20 25 17 Q24 15 22 16"/>
  <!-- Sword handle/grip -->
  <path d="M13 14 Q10 10 8 8"/>
  <path d="M10 10 Q11 8 13 9 Q15 8 14 10"/>
  <!-- Grip wrapping lines -->
  <path d="M9 9 Q10 7 12 8"/>
  <path d="M8 10 Q9 8 11 9"/>

  <!-- Flames / energy aura on weapons -->
  <path d="M32 12 Q30 9 32 7 Q34 9 32 12"/>
  <path d="M29 13 Q27 10 29 8 Q31 10 29 13"/>
  <path d="M35 13 Q37 10 35 8 Q33 10 35 13"/>

  <!-- Lion face at base (silhouette) -->
  <!-- Lion head -->
  <circle cx="32" cy="52" rx="8" ry="6"/>
  <!-- Lion mane (radiating lines) -->
  <path d="M24 52 Q20 48 22 44 Q24 48 24 52"/>
  <path d="M24 46 Q22 42 25 40 Q26 44 24 46"/>
  <path d="M28 44 Q27 40 30 38 Q31 42 28 44"/>
  <path d="M32 44 Q32 40 35 39 Q35 43 32 44"/>
  <path d="M36 44 Q38 40 40 41 Q39 44 36 44"/>
  <path d="M40 46 Q43 42 44 44 Q43 47 40 46"/>
  <path d="M40 52 Q44 50 44 54 Q42 55 40 52"/>
  <!-- Lion eyes -->
  <circle cx="29" cy="51" r="1.2"/>
  <circle cx="35" cy="51" r="1.2"/>
  <!-- Lion nose -->
  <path d="M31 53 Q32 54 33 53"/>
  <!-- Lion mouth / fierce expression -->
  <path d="M28 55 Q32 58 36 55"/>
  <!-- Fangs -->
  <path d="M30 55 L29 57"/>
  <path d="M34 55 L35 57"/>
</svg>
