<svg xmlns="http://www.w3.org/2000/svg" viewBox="0 0 64 64" fill="none" stroke="currentColor" stroke-width="1.5" stroke-linecap="round" stroke-linejoin="round">
  <!-- Crown/Mukut -->
  <path d="M26 6 L28 3 L30 6 L32 3 L34 6"/>
  <path d="M24 8 Q29 5 34 8"/>
  <!-- Modak on crown -->
  <ellipse cx="32" cy="5" rx="2" ry="1.5"/>

  <!-- Large elephant ear (right side facing viewer) -->
  <path d="M38 16 Q52 12 54 24 Q54 36 42 38 Q40 30 38 22"/>
  <!-- Small left ear -->
  <path d="M22 16 Q12 14 11 22 Q11 30 20 30 Q21 25 22 20"/>

  <!-- Elephant head - round and full -->
  <ellipse cx="30" cy="26" rx="12" ry="14"/>

  <!-- Eyes -->
  <circle cx="27" cy="21" r="1.5"/>
  <circle cx="33" cy="21" r="1.5"/>
  <!-- Third eye dot -->
  <circle cx="30" cy="18.5" r="0.8" fill="currentColor"/>

  <!-- Trunk curving left -->
  <path d="M25 28 Q20 32 18 38 Q16 43 20 45 Q24 47 26 43"/>
  <!-- Trunk tip curl -->
  <path d="M20 45 Q22 48 19 48 Q17 46 18 44"/>

  <!-- Tusk (right) -->
  <path d="M35 30 Q40 34 38 40"/>
  <!-- Broken tusk (left, shorter) -->
  <path d="M26 30 Q22 34 24 37"/>

  <!-- Body outline -->
  <path d="M18 40 Q16 52 20 58 Q26 62 32 62 Q38 62 44 58 Q48 52 46 40"/>

  <!-- Pot belly -->
  <ellipse cx="32" cy="52" rx="12" ry="8"/>

  <!-- Arms (4 arms suggested) -->
  <!-- Upper right arm with lotus/modak -->
  <path d="M42 36 Q50 32 52 36"/>
  <circle cx="52" cy="35" r="2.5"/>
  <!-- Upper left arm with axe -->
  <path d="M20 36 Q12 32 10 36"/>
  <path d="M9 34 L11 38 L7 38 Z"/>
  <!-- Lower right arm blessing gesture -->
  <path d="M44 44 Q50 42 52 46"/>
  <!-- Lower left arm with sweet/modak -->
  <path d="M20 44 Q14 44 12 48"/>
  <ellipse cx="11" cy="49" rx="2" ry="1.5"/>

  <!-- Navel -->
  <circle cx="32" cy="52" r="1.2"/>

  <!-- Legs suggested -->
  <path d="M22 60 Q20 64 18 64"/>
  <path d="M42 60 Q44 64 46 64"/>
</svg>
