<svg xmlns="http://www.w3.org/2000/svg" viewBox="0 0 64 64" fill="none" stroke="currentColor" stroke-width="1.5" stroke-linecap="round" stroke-linejoin="round">
  <!-- Peacock feather at top -->
  <!-- Feather quill -->
  <line x1="38" y1="2" x2="26" y2="22"/>

  <!-- Feather vane (barbs flowing from quill) -->
  <path d="M38 2 Q44 6 46 12 Q44 18 38 20 Q34 18 32 14 Q32 10 36 6"/>
  <!-- Feather eye (ocellus) -->
  <ellipse cx="39" cy="12" rx="4" ry="5.5" transform="rotate(-15 39 12)"/>
  <ellipse cx="39" cy="12" rx="2" ry="3" transform="rotate(-15 39 12)"/>
  <ellipse cx="39" cy="12" rx="0.8" ry="1.2" transform="rotate(-15 39 12)"/>
  <!-- Feather tip -->
  <path d="M38 2 Q36 1 35 2 Q36 4 38 4"/>
  <!-- Barb lines on feather -->
  <path d="M37 5 Q41 8 43 11"/>
  <path d="M36 7 Q40 10 41 14"/>
  <path d="M35 9 Q38 13 38 17"/>
  <path d="M36 5 Q34 8 33 11"/>
  <path d="M35 7 Q33 10 33 13"/>

  <!-- Bansuri (flute) held diagonally -->
  <!-- Flute body - elongated cylinder -->
  <path d="M8 42 Q10 40 14 36 L46 14 Q48 13 49 14 Q50 15 48 17 L16 39 Q14 41 12 44 Q10 44 8 42"/>
  <!-- Flute bore holes -->
  <circle cx="20" cy="37" r="1.2"/>
  <circle cx="24" cy="35" r="1.2"/>
  <circle cx="28" cy="33" r="1.2"/>
  <circle cx="32" cy="31" r="1.2"/>
  <circle cx="36" cy="29" r="1.2"/>
  <circle cx="40" cy="27" r="1.2"/>
  <!-- Flute mouthpiece end -->
  <path d="M46 14 Q47 12 49 12 Q51 13 50 15"/>
  <!-- Flute bell end -->
  <path d="M8 42 Q6 44 5 43 Q5 41 7 40"/>

  <!-- Hands holding flute (stylized) -->
  <!-- Left hand near mouthpiece area -->
  <path d="M42 18 Q44 16 45 18 Q44 20 42 20"/>
  <!-- Right hand in middle -->
  <path d="M24 32 Q22 30 23 32 Q24 34 26 33"/>

  <!-- Musical notes floating (decorative) -->
  <path d="M50 22 Q52 20 52 23"/>
  <line x1="52" y1="23" x2="52" y2="20"/>
  <path d="M55 19 Q57 17 57 20"/>
  <line x1="57" y1="20" x2="57" y2="17"/>
  <!-- Note flags -->
  <path d="M52 20 Q54 19 55 20"/>
  <path d="M57 17 Q58 16 59 17"/>

  <!-- Ground/stage line (lotus suggestion) -->
  <path d="M12 56 Q20 52 32 54 Q44 56 52 52"/>
  <!-- Lotus petals at feet -->
  <path d="M20 56 Q18 54 18 58 Q20 60 22 58 Q22 54 20 56"/>
  <path d="M32 56 Q30 54 30 58 Q32 60 34 58 Q34 54 32 56"/>
  <path d="M44 54 Q42 52 42 56 Q44 58 46 56 Q46 52 44 54"/>

  <!-- Crown/Mukut hint -->
  <path d="M26 22 Q28 18 30 16 Q32 14 34 16"/>
  <path d="M28 19 L28 16 Q29 14 30 15"/>
</svg>
